<?xml version="1.0" encoding="UTF-8" standalone="no"?>
<svg
   viewBox="0 0 189 36"
   version="1.1"
   id="svg4"
   sodipodi:docname="Logo.svg"
   width="189"
   height="36"
   inkscape:version="1.2.2 (b0a8486541, 2022-12-01)"
   xmlns:inkscape="http://www.inkscape.org/namespaces/inkscape"
   xmlns:sodipodi="http://sodipodi.sourceforge.net/DTD/sodipodi-0.dtd"
   xmlns="http://www.w3.org/2000/svg"
   xmlns:svg="http://www.w3.org/2000/svg">
  <defs
     id="defs8" />
  <sodipodi:namedview
     id="namedview6"
     pagecolor="#ffffff"
     bordercolor="#000000"
     borderopacity="0.25"
     inkscape:showpageshadow="2"
     inkscape:pageopacity="0.0"
     inkscape:pagecheckerboard="0"
     inkscape:deskcolor="#d1d1d1"
     showgrid="false"
     inkscape:zoom="6.4399295"
     inkscape:cx="143.32455"
     inkscape:cy="12.810699"
     inkscape:window-width="1854"
     inkscape:window-height="1011"
     inkscape:window-x="0"
     inkscape:window-y="0"
     inkscape:window-maximized="1"
     inkscape:current-layer="svg4" />
  <!--! Font Awesome Free 6.0.0-beta2 by @fontawesome - https://fontawesome.com License - https://fontawesome.com/license/free (Icons: CC BY 4.0, Fonts: SIL OFL 1.1, Code: MIT License) -->
  <path
     d="m 12.2228,0.07845973 c 0.464977,0 0.873593,0.21839822 1.04972,0.71085088 L 15.343781,5.999869 20.705105,4.3710411 c 0.443842,-0.1338568 0.922909,0.014793 1.211759,0.3762086 0.03522,0.040858 0.0634,0.083133 0.09159,0.1275169 -1.204712,0.580516 -2.268522,1.4689033 -3.064619,2.6221874 l -2.888496,4.170701 c -1.923312,0.627015 -3.508462,2.183983 -4.072069,4.29047 L 10.581291,21.1715 8.0943707,23.461159 C 7.7562054,23.778188 7.2560036,23.848639 6.843161,23.651377 6.4267945,23.447069 6.1752843,23.017318 6.207692,22.552341 L 6.6015131,16.958528 1.0605396,16.099026 C 0.60401678,16.028575 0.23703734,15.690409 0.13431972,15.239523 0.03153157,14.788636 0.21371804,14.316615 0.59415363,14.055946 L 5.2129235,10.878604 2.4308123,6.0090284 C 2.2018461,5.6081612 2.2405941,5.1079588 2.5287391,4.7472497 2.8161793,4.3858361 3.2952461,4.2371843 3.7369742,4.3710411 L 9.10182,5.999869 11.173079,0.78931061 C 11.349208,0.29685795 11.757824,0.07845973 12.2228,0.07845973 Z m 14.667906,6.45824667 9.55316,2.4960803 c 2.30375,0.67633 3.966393,2.6771393 4.156612,5.0513403 l 0.486112,5.910841 c 1.211759,0.951088 1.803547,2.557373 1.380842,4.135475 l -2.479877,9.257265 c -0.324077,1.197667 -1.620375,1.852863 -2.761683,1.592197 l -1.084943,-0.288851 c -1.204715,-0.324073 -1.916269,-1.564011 -1.59924,-2.761679 l 0.584744,-2.183984 -17.422541,-4.663859 -0.577699,2.176938 c -0.387481,1.204712 -1.564013,1.916268 -2.761681,1.592193 L 13.27252,28.561814 c -1.204711,-0.324075 -1.916267,-1.556968 -1.592192,-2.761681 l 2.479876,-9.257267 c 0.422706,-1.578103 1.740141,-2.670093 3.261883,-2.888491 l 3.374605,-4.8752117 c 1.352659,-1.9655844 3.79731,-2.8589035 6.094014,-2.2424569 z m -1.162441,4.3559886 c -0.464977,-0.126813 -0.951089,0.05636 -1.218802,0.44384 l -2.27557,3.290064 14.195884,3.804356 -0.324076,-4.043889 c -0.03524,-0.415662 -0.366345,-0.810187 -0.831322,-0.936999 z m -7.002834,10.377437 c 0.901774,0.239533 1.831728,-0.295895 2.071261,-1.197668 0.246578,-0.901774 -0.288849,-1.824681 -1.190623,-2.071261 -0.965179,-0.239533 -1.831727,0.295896 -2.07126,1.197668 -0.246579,0.901773 0.288849,1.831727 1.190622,2.071261 z m 18.296134,1.401975 c -0.901772,-0.239533 -1.824681,0.295895 -2.071259,1.197667 -0.239534,0.901774 0.295894,1.824683 1.197667,2.071262 0.901772,0.239532 1.831726,-0.295895 2.071259,-1.197669 0.239535,-0.901773 -0.295893,-1.831727 -1.197667,-2.07126 z"
     id="path2"
     style="fill:#2291ff;fill-opacity:1;stroke:none;stroke-width:0.0704512" />
  <g
     aria-label="ВИЖОК"
     id="text270"
     style="font-weight:bold;font-size:48.0945px;font-family:'Nimbus Mono PS';-inkscape-font-specification:'Nimbus Mono PS Bold';fill:#2291ff;fill-rule:evenodd;stroke-width:0.0704512;stroke-linejoin:round">
    <path
       d="m 48.770075,30.150652 h -0.529039 c -1.202363,0 -1.635213,0.09619 -2.116158,0.336661 -0.769512,0.480945 -1.250457,1.298552 -1.250457,2.116158 0,0.769512 0.43285,1.587119 1.058079,2.019969 0.480945,0.336662 1.202362,0.480945 2.308536,0.480945 h 14.187878 c 5.819435,0 9.666995,-2.981859 9.666995,-7.550836 0,-2.837576 -1.635213,-5.098018 -4.90564,-6.637042 1.971875,-1.490929 2.837576,-3.078048 2.837576,-5.194206 0,-4.472788 -4.088033,-7.7432145 -9.6189,-7.7432145 H 48.241036 c -1.202363,0 -1.683308,0.096189 -2.116158,0.3366615 -0.769512,0.4809451 -1.250457,1.2985516 -1.250457,2.116158 0,0.817607 0.43285,1.587119 1.058079,2.019969 0.529039,0.384756 1.058079,0.480945 2.308536,0.480945 h 0.529039 z m 5.194207,-11.10983 V 12.93282 h 6.20419 c 2.933765,0 4.665167,1.058079 4.665167,2.741387 0,2.019969 -2.308536,3.366615 -5.627057,3.366615 z m 0,11.10983 v -6.156096 h 6.300379 c 1.971875,0 3.462804,0.336661 4.665167,1.009984 1.154268,0.673323 1.971874,1.827591 1.971874,2.837576 0,1.539024 -1.587118,2.308536 -4.713261,2.308536 z"
       id="path272" />
    <path
       d="m 76.376338,30.150652 c -2.116158,0.04809 -3.174237,0.865701 -3.174237,2.452819 0,1.635213 1.202363,2.500914 3.41471,2.500914 h 4.857545 L 93.161319,17.501798 v 12.600759 h -0.913795 c -2.212347,0 -3.366615,0.865701 -3.366615,2.500914 0,1.635213 1.154268,2.500914 3.366615,2.500914 h 6.204191 c 2.212345,0 3.366615,-0.865701 3.366615,-2.549008 0,-1.635213 -1.00998,-2.356631 -3.462804,-2.45282 V 12.980915 h 0.529039 c 2.212345,0 3.366615,-0.865701 3.366615,-2.500914 0,-1.6352134 -1.15427,-2.5009145 -3.366615,-2.5009145 H 93.257508 L 81.570545,25.485485 v -12.50457 h 1.490929 c 2.260442,0 3.41471,-0.865701 3.41471,-2.500914 0,-1.6352134 -1.202363,-2.5009145 -3.41471,-2.5009145 h -6.204191 c -2.260441,0 -3.414709,0.8657011 -3.414709,2.4528195 0,1.635213 0.96189,2.45282 2.933764,2.500914 z"
       id="path274" />
    <path
       d="m 113.98626,30.150652 c -1.82759,0.240472 -2.6452,1.009984 -2.6452,2.500914 0,1.779496 1.10617,2.452819 4.18422,2.452819 h 2.06807 c 2.98185,0 4.13612,-0.673323 4.13612,-2.452819 0,-1.442835 -0.8176,-2.212347 -2.54901,-2.500914 v -6.925608 c 0.48095,0.480945 1.53903,2.452819 2.06807,3.895654 l 1.97187,5.098017 c 1.00999,2.404725 1.49093,2.837576 3.46281,2.88567 h 1.53902 c 1.49093,0 2.54901,-0.96189 2.54901,-2.404725 0,-1.490929 -0.9138,-2.35663 -2.78948,-2.549008 l -1.87569,-5.001828 c -0.8176,-2.116158 -1.92378,-3.703277 -3.5109,-5.049923 0.19238,-0.192378 0.62523,-0.817607 0.8657,-1.250457 l 2.50092,-4.472789 c 0.43285,1.346646 1.10617,1.92378 2.30853,1.92378 1.68331,0 2.30854,-1.009984 2.30854,-3.703276 V 11.97093 c 0,-3.2223314 -0.52904,-3.9918435 -2.6452,-3.9918435 -3.12614,0 -4.03994,0.9618901 -8.7532,9.5227115 V 12.93282 c 1.58712,-0.336661 2.35663,-1.106173 2.35663,-2.452819 0,-1.8275914 -1.10617,-2.5009145 -4.08803,-2.5009145 h -1.63521 c -3.02995,0 -4.13613,0.6733231 -4.13613,2.4528195 0,1.394741 0.72142,2.212347 2.30854,2.500914 v 4.617072 l -3.02996,-5.290395 c -1.82759,-3.1742369 -3.31852,-4.2804105 -5.77134,-4.2804105 -2.11615,0 -2.5971,0.7695121 -2.5971,3.9918435 v 0.625229 c 0,2.693292 0.62523,3.703276 2.30854,3.703276 1.20236,0 1.82759,-0.529039 2.26044,-1.875685 l 2.54901,4.520883 c 0.14428,0.288567 0.28856,0.480945 0.76951,1.106173 -1.58712,1.49093 -2.74139,3.174238 -3.46281,5.146112 l -1.87568,4.953734 c -1.87569,0.192378 -2.74139,0.96189 -2.74139,2.500914 0,1.442835 1.05808,2.452819 2.50092,2.452819 h 1.58712 c 1.87568,-0.04809 2.40472,-0.480945 3.36661,-2.88567 l 1.97188,-5.098017 c 0.67332,-1.731402 1.49092,-3.222331 2.16425,-3.895654 z"
       id="path276" />
    <path
       d="m 145.44008,7.3057635 c -3.22233,0 -6.34847,1.2504571 -9.04177,3.6070875 -2.93376,2.597103 -4.56897,6.396569 -4.56897,10.58079 0,7.887499 6.108,14.235973 13.61074,14.235973 7.45465,0 13.61074,-6.348474 13.61074,-13.9955 0,-4.472789 -1.53902,-8.079876 -4.56897,-10.821263 -2.59711,-2.3566304 -5.77134,-3.6070875 -9.04177,-3.6070875 z m 0,4.9537335 c 4.56898,0 8.41654,4.184222 8.41654,9.137955 0,5.194207 -3.75137,9.378428 -8.41654,9.378428 -4.61707,0 -8.41654,-4.184221 -8.41654,-9.282239 0,-5.049922 3.79947,-9.234144 8.41654,-9.234144 z"
       id="path278" />
    <path
       d="m 187.08994,11.97093 c 0,-1.827591 -0.0962,-2.4047249 -0.43285,-2.9337644 -0.52904,-0.7695121 -1.39474,-1.0580791 -3.02996,-1.0580791 -2.93376,0 -4.76135,0.9618901 -6.39656,3.3666155 l -3.41471,4.953733 c -1.15427,1.635213 -1.44284,1.827591 -2.54901,1.875686 h -0.38476 v -5.194206 c 2.98186,-0.09619 3.89566,-0.673323 3.89566,-2.549009 0,-1.8275909 -1.05808,-2.4528195 -4.13613,-2.4528195 h -4.71326 c -3.02996,0 -4.13613,0.6252286 -4.13613,2.4528195 0,1.779497 1.20236,2.597103 3.89565,2.549009 v 17.121642 c -2.88567,0.04809 -3.89565,0.721418 -3.89565,2.549009 0,1.779496 1.10617,2.452819 4.13613,2.452819 h 4.71326 c 3.02995,0 4.13613,-0.673323 4.13613,-2.452819 0,-1.683308 -1.15427,-2.549009 -3.41471,-2.549009 h -0.24048 -0.24047 v -6.925608 h 1.10617 c 1.44284,-0.09619 3.07805,1.346646 4.61708,4.039938 l 2.78948,5.194206 c 0.62523,1.202363 1.29855,2.212347 1.53902,2.308536 0.24047,0.240473 1.39474,0.384756 3.02996,0.384756 h 0.52903 c 3.07805,0 4.18423,-0.673323 4.18423,-2.452819 0,-1.875686 -1.05808,-2.549009 -4.18423,-2.549009 h -0.72141 l -2.69329,-5.049922 c -1.20237,-2.164253 -2.35664,-3.655183 -3.84756,-4.857545 l 0.19237,-0.336662 c 0.33666,-0.43285 0.96189,-1.346646 1.92378,-2.693292 0.14429,-0.288567 0.24048,-0.384756 0.38476,-0.577134 0.24047,-0.384756 0.43285,-0.673323 0.52904,-0.817606 l 1.15427,-1.731402 c 0.0481,-0.09619 0.28856,-0.384756 0.57713,-0.721418 0.19238,2.116158 1.00999,2.981859 2.6452,2.981859 1.77949,0 2.45282,-1.058079 2.45282,-3.895654 z"
       id="path280" />
  </g>
</svg>
